<svg width="518" height="473" viewBox="0 0 518 473" fill="none" xmlns="http://www.w3.org/2000/svg">
<path d="M461.777 162.679C461.777 -41.6136 59.7772 -32.9815 59.7772 162.679" stroke="#4006ED" stroke-width="25"/>
<path d="M59.7772 309.812C59.7772 514.105 461.777 505.473 461.777 309.812" stroke="#4006ED" stroke-width="25"/>
<path d="M5.39844 217.826L5.39844 252.165C5.39844 268.91 16.0277 283.956 31.7347 289.759C57.8547 299.41 86.0084 280.236 86.0084 252.39V217.597C86.0084 189.651 57.6684 170.473 31.512 180.313C15.9203 186.179 5.39844 201.168 5.39844 217.826Z" fill="#4006ED" stroke="#4006ED" stroke-width="10"/>
<path d="M512.44 254.665V220.327C512.44 203.582 501.811 188.535 486.104 182.732C459.984 173.081 431.83 192.255 431.83 220.101V254.895C431.83 282.841 460.17 302.018 486.327 292.178C501.918 286.313 512.44 271.324 512.44 254.665Z" fill="#4006ED" stroke="#4006ED" stroke-width="10"/>
<line x1="118.868" y1="328.82" x2="118.868" y2="244.812" stroke="#4006ED" stroke-width="20" stroke-linecap="round"/>
<line x1="169.295" y1="382.773" x2="169.295" y2="302.773" stroke="#4006ED" stroke-width="20" stroke-linecap="round"/>
<line x1="226.229" y1="407.773" x2="226.229" y2="127.773" stroke="#4006ED" stroke-width="20" stroke-linecap="round"/>
<line x1="284.789" y1="407.773" x2="284.789" y2="127.773" stroke="#4006ED" stroke-width="20" stroke-linecap="round"/>
<line x1="341.723" y1="382.773" x2="341.723" y2="202.773" stroke="#4006ED" stroke-width="20" stroke-linecap="round"/>
<line x1="393.776" y1="324.812" x2="393.776" y2="244.812" stroke="#4006ED" stroke-width="20" stroke-linecap="round"/>
<circle cx="169.369" cy="258.812" r="24" fill="#4006ED"/>
<circle cx="351.723" cy="142.209" r="24" fill="#4006ED"/>
<circle cx="254.203" cy="81.751" r="27.5" fill="#4006ED"/>
</svg>
