<svg width="201" height="201" viewBox="0 0 201 201" fill="none" xmlns="http://www.w3.org/2000/svg">
<path d="M100.083 200.585C155.312 200.585 200.083 155.814 200.083 100.585C200.083 45.3568 155.312 0.585266 100.083 0.585266C44.855 0.585266 0.0834961 45.3568 0.0834961 100.585C0.0834961 155.814 44.855 200.585 100.083 200.585Z" fill="#617FE8"/>
<path d="M100.083 150.585C86.1441 150.585 74.3259 147.919 64.629 142.585C54.932 137.252 50.0835 130.752 50.0835 123.085L50.0835 70.5853C50.0835 65.0853 53.6441 60.3769 60.7653 56.4603C67.8865 52.5436 76.4471 50.5853 86.4471 50.5853C96.4471 50.5853 105.008 52.5436 112.129 56.4603C119.25 60.3769 122.811 65.0853 122.811 70.5853V118.085C122.811 121.585 120.614 124.544 116.22 126.96C111.826 129.377 106.447 130.585 100.083 130.585C93.7199 130.585 88.3411 129.377 83.9471 126.96C79.5532 124.544 77.3562 121.585 77.3562 118.085V70.5853H90.9926V118.085C90.9926 119.502 91.8638 120.689 93.6062 121.648C95.3486 122.606 97.5077 123.085 100.083 123.085C102.659 123.085 104.818 122.606 106.561 121.648C108.303 120.689 109.174 119.502 109.174 118.085V70.5853C109.174 67.0853 106.977 64.1269 102.583 61.7103C98.1896 59.2936 92.8108 58.0853 86.4471 58.0853C80.0835 58.0853 74.7047 59.2936 70.3108 61.7103C65.9168 64.1269 63.7199 67.0853 63.7199 70.5853L63.7199 123.085C63.7199 128.585 67.2805 133.294 74.4017 137.21C81.5229 141.127 90.0835 143.085 100.083 143.085C110.083 143.085 118.644 141.127 125.765 137.21C132.887 133.294 136.447 128.585 136.447 123.085V70.5853H150.083V123.085C150.083 130.752 145.235 137.252 135.538 142.585C125.841 147.919 114.023 150.585 100.083 150.585Z" fill="#FAFAFA"/>
<path d="M50.0835 100.585C50.0835 86.6459 52.7502 74.8277 58.0835 65.1307C63.4168 55.4338 69.9168 50.5853 77.5835 50.5853L130.083 50.5853C135.583 50.5853 140.292 54.1459 144.208 61.2671C148.125 68.3883 150.083 76.9489 150.083 86.9489C150.083 96.9489 148.125 105.51 144.208 112.631C140.292 119.752 135.583 123.313 130.083 123.313L82.5835 123.313C79.0835 123.313 76.1252 121.116 73.7085 116.722C71.2918 112.328 70.0835 106.949 70.0835 100.585C70.0835 94.2216 71.2918 88.8428 73.7085 84.4489C76.1252 80.055 79.0835 77.858 82.5835 77.858L130.083 77.858V91.4944L82.5835 91.4944C81.1668 91.4944 79.9793 92.3656 79.021 94.108C78.0627 95.8504 77.5835 98.0095 77.5835 100.585C77.5835 103.161 78.0627 105.32 79.021 107.063C79.9793 108.805 81.1668 109.676 82.5835 109.676L130.083 109.676C133.583 109.676 136.542 107.479 138.958 103.085C141.375 98.6913 142.583 93.3125 142.583 86.9489C142.583 80.5853 141.375 75.2065 138.958 70.8125C136.542 66.4186 133.583 64.2216 130.083 64.2216L77.5835 64.2216C72.0835 64.2216 67.3752 67.7822 63.4585 74.9034C59.5418 82.0247 57.5835 90.5853 57.5835 100.585C57.5835 110.585 59.5418 119.146 63.4585 126.267C67.3752 133.388 72.0835 136.949 77.5835 136.949H130.083V150.585H77.5835C69.9168 150.585 63.4168 145.737 58.0835 136.04C52.7502 126.343 50.0835 114.525 50.0835 100.585Z" fill="#FAFAFA"/>
<path d="M100.083 50.5853C114.023 50.5853 125.841 53.2519 135.538 58.5853C145.235 63.9186 150.083 70.4186 150.083 78.0853L150.083 130.585C150.083 136.085 146.523 140.794 139.402 144.71C132.28 148.627 123.72 150.585 113.72 150.585C103.72 150.585 95.1593 148.627 88.038 144.71C80.9168 140.794 77.3562 136.085 77.3562 130.585L77.3562 83.0853C77.3562 79.5853 79.5532 76.6269 83.9471 74.2103C88.3411 71.7936 93.7199 70.5853 100.083 70.5853C106.447 70.5853 111.826 71.7936 116.22 74.2103C120.614 76.6269 122.811 79.5853 122.811 83.0853L122.811 130.585H109.174L109.174 83.0853C109.174 81.6686 108.303 80.4811 106.561 79.5228C104.818 78.5644 102.659 78.0853 100.083 78.0853C97.5077 78.0853 95.3486 78.5644 93.6062 79.5228C91.8638 80.4811 90.9926 81.6686 90.9926 83.0853L90.9926 130.585C90.9926 134.085 93.1896 137.044 97.5835 139.46C101.977 141.877 107.356 143.085 113.72 143.085C120.083 143.085 125.462 141.877 129.856 139.46C134.25 137.044 136.447 134.085 136.447 130.585V78.0853C136.447 72.5853 132.887 67.8769 125.765 63.9603C118.644 60.0436 110.083 58.0853 100.083 58.0853C90.0835 58.0853 81.5229 60.0436 74.4017 63.9603C67.2805 67.8769 63.7199 72.5853 63.7199 78.0853L63.7199 130.585H50.0835L50.0835 78.0853C50.0835 70.4186 54.932 63.9186 64.6289 58.5853C74.3259 53.2519 86.1441 50.5853 100.083 50.5853Z" fill="#FAFAFA"/>
<path d="M150.083 100.585C150.083 114.525 147.417 126.343 142.084 136.04C136.75 145.737 130.25 150.585 122.584 150.585H70.0835C64.5835 150.585 59.8752 147.025 55.9585 139.903C52.0418 132.782 50.0835 124.222 50.0835 114.222C50.0835 104.222 52.0418 95.661 55.9585 88.5398C59.8752 81.4186 64.5835 77.858 70.0835 77.858L117.583 77.858C121.083 77.858 124.042 80.055 126.459 84.4489C128.875 88.8428 130.084 94.2216 130.084 100.585C130.084 106.949 128.875 112.328 126.459 116.722C124.042 121.116 121.083 123.313 117.583 123.313L70.0835 123.313V109.676H117.583C119 109.676 120.188 108.805 121.146 107.063C122.104 105.32 122.584 103.161 122.584 100.585C122.584 98.0095 122.104 95.8504 121.146 94.108C120.188 92.3656 119 91.4944 117.583 91.4944H70.0835C66.5835 91.4944 63.6252 93.6913 61.2085 98.0853C58.7918 102.479 57.5835 107.858 57.5835 114.222C57.5835 120.585 58.7918 125.964 61.2085 130.358C63.6252 134.752 66.5835 136.949 70.0835 136.949H122.584C128.084 136.949 132.792 133.388 136.709 126.267C140.625 119.146 142.584 110.585 142.584 100.585C142.584 90.5853 140.625 82.0247 136.709 74.9035C132.792 67.7822 128.084 64.2216 122.584 64.2216L70.0835 64.2216V50.5853L122.584 50.5853C130.25 50.5853 136.75 55.4337 142.084 65.1307C147.417 74.8277 150.083 86.6459 150.083 100.585Z" fill="#FAFAFA"/>
</svg>
